PathFileType	4	(X/Y/Z)	TVC_9_BWA3_walk_RCNL2025.trc
DataRate	CameraRate	NumFrames	NumMarkers	Units	OrigDataRate	OrigDataStartFrame	OrigNumFrames
100	100	10	27	mm	100	165	438
Frame#	Time	R_Shoulder			L_Shoulder			C7			J_Notch			R_Elbow			L_Elbow			R_Wrist			L_Wrist			R_Asis			L_Asis			R_Psis			L_Psis			Sacral			Thoracic			Sternum			R_Thigh_Lateral			R_Knee_Lateral			R_Shank_Lateral			R_Ankle_Lateral			R_Heel			R_Toe			L_Thigh_Lateral			L_Knee_Lateral			L_Shank_Lateral			L_Ankle_Lateral			L_Heel			L_Toe		
		X1	Y1	Z1	X2	Y2	Z2	X3	Y3	Z3	X4	Y4	Z4	X5	Y5	Z5	X6	Y6	Z6	X7	Y7	Z7	X8	Y8	Z8	X9	Y9	Z9	X10	Y10	Z10	X11	Y11	Z11	X12	Y12	Z12	X13	Y13	Z13	X14	Y14	Z14	X15	Y15	Z15	X16	Y16	Z16	X17	Y17	Z17	X18	Y18	Z18	X19	Y19	Z19	X20	Y20	Z20	X21	Y21	Z21	X22	Y22	Z22	X23	Y23	Z23	X24	Y24	Z24	X25	Y25	Z25	X26	Y26	Z26	X27	Y27	Z27
165	1.64000000	-299.934937	1373.278564	69.411125	-338.630341	1388.479248	-320.997040	-373.538605	1446.570190	-126.191986	-219.491226	1345.412720	-124.449821	-248.819839	1060.592651	187.695206	-417.024567	1068.367676	-417.520050	-79.709038	876.214020	171.874069	-367.634720	828.374237	-409.771133	-283.485229	932.964600	25.373804	-292.405609	939.370178	-279.543884	-479.333466	963.863647	-69.081024	-482.658020	957.554565	-169.250031	-480.995743	960.709106	-119.165527	-472.859131	1171.336060	-119.839622	-164.882996	1156.762817	-130.697617	-333.170074	531.477905	72.215370	-337.992554	451.834808	-3.076389	-349.225891	291.176331	33.930626	-387.442749	72.027817	-55.566677	-441.097504	63.644108	-118.336884	-258.238800	48.775036	-91.189186	-158.240982	614.887329	-328.176056	-150.591141	486.656952	-277.797272	-191.828018	352.704712	-327.869019	-285.458801	146.079224	-255.174774	-341.201569	128.298111	-195.857040	-154.757782	85.396271	-231.053619
166	1.65000000	-292.509186	1373.348511	69.053528	-331.564514	1387.968140	-321.269440	-366.135895	1445.958130	-126.566795	-212.009064	1345.043701	-124.812874	-235.503906	1062.716919	188.901047	-413.844696	1068.084961	-415.278687	-61.285769	883.276886	171.935280	-370.346313	826.757446	-407.309052	-275.537323	932.710754	25.692415	-284.101837	938.594604	-279.242065	-471.394196	963.341248	-69.156609	-474.474762	956.793335	-169.285034	-472.934479	960.067291	-119.220821	-465.077423	1170.616821	-120.027527	-157.162399	1156.374268	-130.423843	-329.244415	531.219421	72.199036	-335.425354	451.726532	-3.297990	-347.652161	290.972809	33.473717	-387.301819	72.104828	-55.793159	-440.932037	63.647923	-118.654984	-258.187836	48.663021	-91.344688	-148.921768	615.197754	-327.874084	-139.287994	486.742004	-277.162720	-174.275345	350.764465	-326.949768	-255.645264	139.210571	-253.362000	-309.907257	118.161552	-193.598999	-121.656982	86.134422	-230.298615
167	1.66000000	-285.080627	1373.258423	68.659584	-324.518433	1387.354980	-321.573730	-358.743744	1445.212646	-126.980011	-204.528824	1344.548706	-125.225960	-222.476913	1064.752563	190.039398	-410.570007	1067.783936	-413.184265	-43.390236	890.293579	171.849823	-372.628555	825.312042	-404.962372	-267.499878	932.331116	25.932194	-275.841736	937.660278	-279.023987	-463.414093	962.656677	-69.237633	-466.285400	955.835510	-169.272614	-464.849747	959.246094	-119.255123	-457.284973	1169.758911	-120.261650	-149.433044	1155.844971	-130.238876	-325.407166	530.945496	72.125511	-332.756195	451.585144	-3.535021	-346.005188	290.744171	32.978642	-387.167938	72.168266	-56.015541	-440.794983	63.641235	-118.946732	-258.150848	48.539413	-91.530693	-140.241760	614.895630	-327.766174	-128.625000	486.419525	-276.533875	-157.198593	348.746460	-326.024994	-225.927383	132.929626	-251.571365	-278.578308	108.747505	-191.367249	-89.120003	87.511620	-229.680466
168	1.67000000	-277.638092	1373.001221	68.228874	-317.490509	1386.645142	-321.908844	-351.354370	1444.337158	-127.429482	-197.043869	1343.929077	-125.691444	-209.735062	1066.677002	191.107635	-407.195312	1067.463501	-411.245026	-26.031208	897.212036	171.626755	-374.441162	824.023499	-402.742294	-259.376038	931.835754	26.095985	-267.622284	936.570618	-278.891296	-455.392029	961.812744	-69.324806	-458.086182	954.683228	-169.210663	-456.739105	958.247986	-119.267735	-449.475128	1168.767578	-120.541313	-141.692947	1155.177612	-130.163513	-321.559143	530.678528	72.012535	-329.971527	451.413025	-3.776575	-344.288727	290.501251	32.482567	-387.042725	72.222435	-56.222591	-440.687286	63.640823	-119.197418	-258.131012	48.413818	-91.728760	-132.166519	613.946960	-327.829742	-118.536911	485.720947	-275.890778	-140.541626	346.689301	-325.103851	-196.444336	127.315430	-249.878952	-247.414444	100.185059	-189.269531	-57.303131	89.519653	-229.237091
169	1.68000000	-270.172302	1372.573853	67.760597	-310.478363	1385.845337	-322.274231	-343.959991	1443.337402	-127.913986	-189.547531	1343.188110	-126.211815	-197.273087	1068.471069	192.101593	-403.714508	1067.123657	-409.468018	-9.214032	903.982391	171.274384	-375.748276	822.877014	-400.659439	-251.170853	931.236450	26.186754	-259.437256	935.332336	-278.844360	-447.327087	960.815125	-69.420868	-449.872833	953.343811	-169.100967	-448.599960	957.079468	-119.260918	-441.641052	1167.649658	-120.866592	-133.940018	1154.377686	-130.215027	-317.579742	530.431641	71.883209	-327.055237	451.212250	-4.011498	-342.500488	290.253571	32.022366	-386.925507	72.274223	-56.403549	-440.606628	63.665276	-119.394241	-258.126434	48.295280	-91.922195	-124.665794	612.330688	-328.036194	-108.949623	484.688019	-275.217072	-124.255943	344.634308	-324.198059	-167.346939	122.422699	-248.354095	-216.612717	92.568329	-187.398300	-26.351862	92.126785	-228.998245
170	1.69000000	-262.676056	1371.977051	67.253586	-303.478790	1384.963501	-322.669647	-336.552765	1442.220703	-128.433289	-182.033112	1342.331543	-126.789558	-185.084503	1070.118896	193.015732	-400.120483	1066.764404	-407.859100	7.059185	910.556915	170.800377	-376.518814	821.857697	-398.723694	-242.891129	930.546387	26.207939	-251.277374	933.955505	-278.882294	-439.218414	959.671936	-69.530434	-441.640289	951.829468	-168.950058	-440.429352	955.750702	-119.240246	-433.775696	1166.413452	-121.238266	-126.171974	1153.453491	-130.406204	-313.353516	530.202576	71.758133	-323.989197	450.983978	-4.229054	-340.631439	290.008392	31.630228	-386.813324	72.332703	-56.548725	-440.547974	63.733871	-119.527138	-258.132263	48.190239	-92.098457	-117.713249	610.042969	-328.352692	-99.782547	483.370697	-274.502472	-108.309799	342.623749	-323.321899	-138.794327	118.280098	-247.054260	-186.358749	85.948402	-185.822464	3.601823	95.278458	-228.984238
171	1.70000000	-255.143967	1371.215942	66.706261	-296.487366	1384.008667	-323.095459	-329.124847	1440.996094	-128.988159	-174.493774	1341.367188	-127.426994	-173.162018	1071.608398	193.843460	-396.404755	1066.386597	-406.422943	22.789400	916.890533	170.211784	-376.726669	820.951080	-396.944260	-234.544876	929.779297	26.163832	-243.130493	932.452759	-279.002411	-431.064941	958.393921	-69.659866	-433.382477	950.157104	-168.769791	-432.223709	954.275513	-119.214828	-425.871674	1165.068848	-121.657768	-118.386139	1152.415771	-130.744904	-308.793182	529.970642	71.648590	-320.754486	450.728333	-4.419551	-338.667542	289.770660	31.330645	-386.701172	72.408524	-56.649815	-440.504425	63.865650	-119.589195	-258.143250	48.101704	-92.250336	-111.281242	607.102234	-328.743134	-90.950714	481.824677	-273.744385	-92.693253	340.697327	-322.491791	-110.949814	114.888268	-246.020844	-156.823914	80.330978	-184.583923	32.439972	98.897888	-229.204239
172	1.71000000	-247.572342	1370.299316	66.116615	-289.498291	1382.990234	-323.552521	-321.668335	1439.674316	-129.580429	-166.922501	1340.304443	-128.126236	-161.497864	1072.930786	194.577377	-392.557098	1065.991333	-405.163147	37.980410	922.941071	169.515175	-376.350922	820.143158	-395.329529	-226.141006	928.949341	26.059885	-234.981842	930.838684	-279.200256	-422.864990	956.994080	-69.816849	-425.092438	948.347900	-168.577423	-423.978714	952.670990	-119.197136	-417.921356	1163.627075	-122.127052	-110.579308	1151.276978	-131.233749	-303.855194	529.701172	71.555260	-317.332855	450.444092	-4.574658	-336.592865	289.544159	31.139044	-386.582245	72.513435	-56.700020	-440.468109	64.078743	-119.576561	-258.155426	48.029541	-92.375626	-105.331108	603.556030	-329.167816	-82.367271	480.107880	-272.948334	-77.417648	338.888428	-321.724701	-83.976547	112.218819	-245.276443	-128.167770	75.680389	-183.697647	60.057964	102.886505	-229.653458
173	1.72000000	-239.958939	1369.239746	65.482193	-282.504364	1381.918213	-324.042267	-314.175293	1438.267212	-130.212952	-159.311996	1339.154785	-128.889069	-150.084061	1074.080444	195.209671	-388.565491	1065.579712	-404.082306	52.638605	928.669098	168.716736	-375.375931	819.420441	-393.886993	-217.688583	928.070007	25.902882	-226.814453	929.129578	-279.469391	-414.616180	955.487488	-70.009956	-416.762360	946.426025	-168.395111	-415.689270	950.956757	-119.202534	-409.916840	1162.100220	-122.648499	-102.747498	1150.050903	-131.870377	-298.546173	529.356506	71.471062	-313.708252	450.129486	-4.687422	-334.392029	289.332458	31.061962	-386.448425	72.659836	-56.693935	-440.430573	64.389969	-119.487823	-258.166443	47.971603	-92.475502	-99.801819	599.485596	-329.583832	-73.946350	478.276917	-272.127563	-62.510670	337.219849	-321.036285	-58.033661	110.214859	-244.823563	-100.543518	71.927643	-183.153702	86.363274	107.124878	-230.310867
174	1.73000000	-232.302490	1368.053223	64.800117	-275.496857	1380.802490	-324.566864	-306.637726	1436.787598	-130.889633	-151.654633	1337.931030	-129.717026	-138.912674	1075.055298	195.732376	-384.416046	1065.152466	-403.182037	66.772688	934.038300	167.822426	-373.790985	818.769897	-392.623444	-209.196304	927.154480	25.700874	-218.609665	927.342651	-279.801575	-406.315033	953.890747	-70.248116	-408.383362	944.418030	-168.248810	-407.349197	949.154388	-119.248463	-401.849976	1160.501465	-123.224678	-94.885788	1148.752808	-132.647781	-292.920868	528.908203	71.386803	-309.868134	449.782776	-4.752178	-332.051910	289.139679	31.098402	-386.290588	72.860374	-56.627449	-440.383636	64.814644	-119.323120	-258.175201	47.924885	-92.552551	-94.600639	595.008545	-329.946686	-65.606453	476.383484	-271.301971	-48.009411	335.700775	-320.438995	-33.273098	108.793198	-244.644882	-74.103691	68.979225	-182.920105	111.273933	111.474754	-231.139420
